HIERARCHY
ROOT root
{
	OFFSET	0	13.1	24.9
	CHANNELS 6  Xposition Yposition Zposition Xrotation Yrotation Zrotation
	JOINT spine_1
	{
		OFFSET	0	9.99999	0
		CHANNELS 3  Xrotation Yrotation Zrotation
		JOINT spine_2
		{
			OFFSET	0	112	-10
			CHANNELS 3  Xrotation Yrotation Zrotation
			JOINT spine_3
			{
				OFFSET	0	206.5	19.3
				CHANNELS 3  Xrotation Yrotation Zrotation
				JOINT spine_4
				{
					OFFSET	0	110.4	14.6
					CHANNELS 3  Xrotation Yrotation Zrotation
					JOINT neck_1
					{
						OFFSET	0	71.8	-50.3
						CHANNELS 3  Xrotation Yrotation Zrotation
						JOINT neck_2
						{
							OFFSET	0	86.2	-25.8
							CHANNELS 3  Xrotation Yrotation Zrotation
							JOINT head_ee
							{
								OFFSET	0	179.8	-8.7
								CHANNELS 3  Xrotation Yrotation Zrotation
								End Site
								{
									OFFSET	1	0	0
								}
							}
						}
					}
					JOINT left_clavicle
					{
						OFFSET	-43.2	22.4	-70.8
						CHANNELS 3  Xrotation Yrotation Zrotation
						JOINT left_shoulder
						{
							OFFSET	-93.9	-5.79999	48.7
							CHANNELS 3  Xrotation Yrotation Zrotation
							JOINT left_elbow
							{
								OFFSET	-291.4	-30.8	15.2
								CHANNELS 3  Xrotation Yrotation Zrotation
								JOINT left_lowarm_twist
								{
									OFFSET	-110.7	-3.89999	13.6
									CHANNELS 3  Xrotation Yrotation Zrotation
									JOINT left_hand
									{
										OFFSET	-110.7	-3.89999	13.6
										CHANNELS 3  Xrotation Yrotation Zrotation
										JOINT left_ee
										{
											OFFSET	-80.8	-5.10001	12.1
											CHANNELS 3  Xrotation Yrotation Zrotation
											End Site
											{
												OFFSET	1	0	0
											}
										}
									}
								}
							}
						}
					}
					JOINT right_clavicle
					{
						OFFSET	43.2	22.4	-70.8
						CHANNELS 3  Xrotation Yrotation Zrotation
						JOINT right_shoulder
						{
							OFFSET	93.9	-5.79999	48.7
							CHANNELS 3  Xrotation Yrotation Zrotation
							JOINT right_elbow
							{
								OFFSET	291.4	-30.8	15.2
								CHANNELS 3  Xrotation Yrotation Zrotation
								JOINT right_lowarm_twist
								{
									OFFSET	110.7	-3.89999	13.6
									CHANNELS 3  Xrotation Yrotation Zrotation
									JOINT right_hand
									{
										OFFSET	110.7	-3.89999	13.6
										CHANNELS 3  Xrotation Yrotation Zrotation
										JOINT right_ee
										{
											OFFSET	80.8	-5.10001	12.1
											CHANNELS 3  Xrotation Yrotation Zrotation
											End Site
											{
												OFFSET	1	0	0
											}
										}
									}
								}
							}
						}
					}
				}
			}
		}
	}
	JOINT left_hip
	{
		OFFSET	-82.8	-127.5	0.300001
		CHANNELS 3  Xrotation Yrotation Zrotation
		JOINT left_knee
		{
			OFFSET	-28.2	-396.7	2.2
			CHANNELS 3  Xrotation Yrotation Zrotation
			JOINT left_ankle
			{
				OFFSET	-11.7	-411.3	35.4
				CHANNELS 3  Xrotation Yrotation Zrotation
				JOINT left_toes
				{
					OFFSET	0	-60	-88.6
					CHANNELS 3  Xrotation Yrotation Zrotation
					JOINT left_foot_ee
					{
						OFFSET	-22.5	-16.5	-42.2
						CHANNELS 3  Xrotation Yrotation Zrotation
						End Site
						{
							OFFSET	1	0	0
						}
					}
				}
			}
		}
	}
	JOINT right_hip
	{
		OFFSET	82.8	-127.5	0.300001
		CHANNELS 3  Xrotation Yrotation Zrotation
		JOINT right_knee
		{
			OFFSET	28.2	-396.7	2.2
			CHANNELS 3  Xrotation Yrotation Zrotation
			JOINT right_ankle
			{
				OFFSET	11.7	-411.3	35.4
				CHANNELS 3  Xrotation Yrotation Zrotation
				JOINT right_toes
				{
					OFFSET	0	-60	-88.6
					CHANNELS 3  Xrotation Yrotation Zrotation
					JOINT right_foot_ee
					{
						OFFSET	22.5	-16.5	-42.2
						CHANNELS 3  Xrotation Yrotation Zrotation
						End Site
						{
							OFFSET	1	0	0
						}
					}
				}
			}
		}
	}
}
MOTION
Frames: 12
Frame Time: 0.02
2520.98 722.056 -669.448 -163.473 -55.7983 -167.019 3.87319 -0.258128 0.672142 3.87339 -0.300374 0.654355 3.86984 -0.391317 0.604383 3.86945 -0.290957 0.658596 -13.2515 -4.88994 0.74112 -13.3137 -9.7697 -0.775085 -0.0 0.0 -0.0 5.77796 10.0403 11.2098 -5.77133 -26.2845 53.3164 1.92128 -43.5792 0.768115 -11.9163 -0.568856 1.41065 -2.10872 12.6772 -8.09268 -0.0 0.0 -0.0 7.68541 14.7403 -14.6295 -33.4418 21.1548 -69.3273 0.49958 13.9003 -0.0609001 60.5084 1.8194 7.15463 -0.622051 -16.3202 -2.82972 0.0 0.0 0.0 3.65409 -2.8058 6.47504 -19.4767 0.301498 2.95928 35.6231 25.8474 -4.75294 34.3737 -0.0 -0.0 -0.0 0.0 -0.0 39.6711 17.8925 -1.99979 -6.14935 -0.203902 -0.921266 -13.0139 -18.7375 -1.97727 11.991 -0.0 -0.0 0.0 0.0 0.0 
2542.2 724.239 -657.738 -162.994 -56.4528 -166.542 3.75443 -0.286891 0.648237 3.7546 -0.327558 0.628669 3.7509 -0.415718 0.574193 3.75059 -0.31982 0.63264 -12.6741 -4.8241 0.944341 -12.729 -9.76383 -0.51145 -0.0 0.0 -0.0 5.43703 10.2169 10.6081 -8.0978 -26.6831 54.143 1.87219 -42.8395 0.734504 -11.9414 -0.570363 1.41349 -1.82759 12.7105 -6.29123 -0.0 0.0 -0.0 7.69042 14.9546 -14.6284 -33.055 21.6198 -68.914 0.5194 14.4292 -0.0657502 60.4733 1.81625 7.15142 -0.656775 -16.3952 -2.64817 0.0 0.0 0.0 4.53859 -2.08442 5.83216 -21.8084 0.26977 3.31563 32.489 26.2055 -4.42226 33.9413 -0.0 -0.0 -0.0 0.0 -0.0 39.1378 18.0493 -2.0501 -7.38623 -0.232898 -1.10886 -12.8701 -17.7921 -1.94972 12.3751 -0.0 -0.0 0.0 0.0 0.0 
2558.69 723.45 -643.744 -161.893 -57.1512 -165.437 3.75067 -0.223451 0.467662 3.75075 -0.252757 0.452496 3.7487 -0.31604 0.410801 3.74855 -0.247196 0.455557 -12.2818 -5.1153 0.684833 -12.3381 -10.1455 -0.810901 -0.0 0.0 -0.0 5.66729 10.3534 11.0108 -9.49257 -25.3999 54.3221 1.74489 -40.8354 0.649573 -11.7849 -0.560999 1.39578 -1.7753 13.2576 -5.69971 -0.0 0.0 -0.0 7.93038 15.4177 -15.1236 -32.6971 22.1388 -68.4787 0.53331 14.7988 -0.0692597 60.2631 1.7974 7.13214 -0.68867 -15.8812 -2.23597 0.0 0.0 0.0 4.03645 -2.96546 5.56498 -22.0828 0.265083 3.35747 30.1518 26.7258 -4.16937 33.4099 -0.0 -0.0 -0.0 0.0 -0.0 39.3622 18.1925 -2.74425 -8.67148 -0.258729 -1.30439 -14.4858 -16.2136 -2.18907 11.7062 -0.0 -0.0 0.0 0.0 0.0 
2580.61 726.922 -630.525 -160.394 -58.1534 -164.089 3.9248 -0.0692694 0.46112 3.92492 -0.0984709 0.455778 3.92407 -0.162541 0.437048 3.92381 -0.0914785 0.457233 -10.5533 -4.83495 0.182789 -10.5847 -9.2426 -1.0716 -0.0 0.0 -0.0 5.61289 9.78733 10.9215 -11.0356 -25.6646 56.1273 1.50636 -36.7281 0.500075 -12.0196 -0.575056 1.42233 -1.52357 13.5667 -3.97158 -0.0 0.0 -0.0 8.03769 15.6058 -15.3466 -32.2675 22.9936 -67.0904 0.546405 15.1457 -0.072643 60.2007 1.79183 7.12641 -0.601963 -16.4326 -2.99988 0.0 0.0 0.0 5.60644 -1.89946 4.72815 -24.4971 0.215217 3.72457 28.7227 27.06 -4.00946 32.978 -0.0 -0.0 -0.0 0.0 -0.0 38.7252 18.4263 -2.59422 -9.7686 -0.277303 -1.47171 -13.5855 -16.1481 -2.05101 12.4932 -0.0 -0.0 0.0 0.0 0.0 
2604.91 732.744 -618.633 -159.821 -57.3335 -163.323 3.99973 0.00796229 0.34963 3.9998 -0.0143015 0.349428 3.99967 -0.0635926 0.34389 3.99951 -0.00848391 0.349617 -9.1684 -5.12525 -1.15019 -9.18335 -8.82358 -2.33805 -0.0 0.0 -0.0 5.48385 9.18349 10.6972 -12.7825 -25.6033 57.9464 1.21615 -31.0655 0.338029 -11.9568 -0.571282 1.41523 -1.20297 13.779 -1.86771 -0.0 0.0 -0.0 8.06403 15.6013 -15.4043 -32.3159 24.1562 -65.9472 0.556384 15.4092 -0.0752724 59.2752 1.70983 7.04067 -0.556703 -16.574 -3.33605 0.0 0.0 0.0 7.35577 -1.63993 4.02985 -24.7774 0.208425 3.76706 25.0989 27.2422 -3.56923 32.0295 -0.0 -0.0 -0.0 0.0 -0.0 38.0947 18.3678 -3.09348 -10.023 -0.281152 -1.51056 -15.3059 -13.4175 -2.30258 12.1677 -0.0 -0.0 0.0 0.0 0.0 
2623.02 733.942 -612.215 -158.572 -57.186 -162.209 4.17494 -0.0389296 0.313952 4.17499 -0.0588281 0.310839 4.17464 -0.101298 0.2997 4.17451 -0.0526947 0.311937 -8.02423 -5.85879 -2.65998 -8.01699 -9.05883 -3.91066 -0.0 0.0 -0.0 5.52147 9.0874 10.7647 -14.5964 -25.3714 59.4875 1.03421 -27.1261 0.249501 -11.915 -0.568781 1.41051 -0.969235 13.9691 -0.324161 -0.0 0.0 -0.0 8.10193 15.3389 -15.5017 -32.3991 24.997 -64.6444 0.565461 15.6484 -0.0777026 58.5339 1.64516 6.97105 -0.490188 -16.1539 -3.57065 0.0 0.0 0.0 8.00819 -1.72177 3.68865 -26.2233 0.170096 3.98564 22.3887 26.2711 -3.20285 31.3803 -0.0 -0.0 -0.0 0.0 -0.0 37.862 18.6432 -2.88688 -10.2276 -0.284122 -1.54181 -16.4619 -10.5266 -2.47154 11.9753 -0.0 -0.0 0.0 0.0 0.0 
2640.76 737.58 -603.437 -157.032 -56.8808 -160.664 4.2573 0.0354253 0.326168 4.25736 0.0145988 0.327761 4.25741 -0.030448 0.32667 4.25726 0.0215252 0.327379 -7.4245 -6.43534 -3.73373 -7.39579 -9.30947 -5.05746 -0.0 0.0 -0.0 5.54468 9.14373 10.8057 -15.7931 -25.2647 61.0369 0.865395 -23.2042 0.177676 -12.2783 -0.590673 1.45151 -0.999109 14.5776 -0.243683 -0.0 0.0 -0.0 8.17802 15.6625 -15.6494 -31.4301 25.7313 -63.4865 0.588457 16.2518 -0.0840219 58.0181 1.60069 6.92212 -0.386656 -15.0112 -3.74052 0.0 0.0 0.0 9.35568 -1.81345 3.43921 -27.1694 0.142034 4.12812 18.1252 24.9453 -2.61873 30.6546 -0.0 -0.0 -0.0 0.0 -0.0 37.5501 18.5743 -3.0174 -9.8594 -0.278697 -1.48558 -16.3989 -8.5707 -2.46078 12.1557 -0.0 -0.0 0.0 0.0 0.0 
2653.45 741.419 -592.465 -156.52 -56.7094 -159.705 4.39141 0.0544553 0.31592 4.39147 0.0342422 0.318745 4.39162 -0.0090035 0.320452 4.39148 0.0417187 0.317853 -7.13581 -6.57444 -4.36442 -7.09164 -9.08059 -5.69485 -0.0 0.0 -0.0 5.45874 10.1671 10.6466 -15.7933 -23.535 62.2083 0.702605 -19.1905 0.118778 -12.4435 -0.600715 1.47011 -0.938842 14.0773 -0.0873844 -0.0 0.0 -0.0 7.59214 13.9463 -14.4705 -28.9152 27.0455 -62.1512 0.693555 18.9611 -0.11582 57.3447 1.54332 6.85764 -0.364484 -14.2564 -3.56887 0.0 0.0 0.0 12.8119 -8.88424 3.1182 -28.8805 0.0853154 4.38458 12.0761 23.6572 -1.77156 29.6399 -0.0 -0.0 -0.0 0.0 -0.0 36.807 18.2568 -4.15792 -9.33607 -0.270363 -1.40571 -15.9549 -7.01501 -2.39445 12.2973 -0.0 -0.0 0.0 0.0 0.0 
2670.01 744.338 -582.138 -157.825 -55.8982 -160.657 4.32296 0.192519 0.246213 4.32298 0.176462 0.257964 4.32376 0.139778 0.279547 4.3237 0.182173 0.253963 -6.99912 -6.41386 -5.39945 -6.92668 -8.01488 -6.68552 -0.0 0.0 -0.0 5.39568 9.83546 10.5378 -18.0838 -23.8042 63.3797 0.554411 -15.3572 0.074749 -12.3314 -0.593897 1.4575 -1.03561 14.4106 -0.543876 -0.0 0.0 -0.0 7.62627 15.1539 -14.4779 -27.6321 28.6502 -61.5993 0.693674 18.9641 -0.115859 56.6301 1.48327 6.7885 -0.440078 -13.0201 -2.58446 0.0 0.0 0.0 16.0958 -6.24355 1.66414 -31.7506 -0.0269576 4.81069 6.55628 24.2354 -0.981089 28.7585 -0.0 -0.0 -0.0 0.0 -0.0 35.8022 17.9853 -4.88578 -10.2193 -0.284004 -1.54054 -14.4916 -5.22495 -2.17535 12.5657 -0.0 -0.0 0.0 0.0 0.0 
2688.36 746.984 -561.7 -157.672 -55.9715 -159.938 4.48111 0.225695 0.160464 4.4811 0.215027 0.174501 4.48176 0.189882 0.201574 4.48177 0.219334 0.169056 -6.18507 -5.94736 -5.72719 -6.0995 -6.79453 -6.8903 -0.0 0.0 -0.0 5.08959 10.4283 9.99945 -19.5059 -22.9988 64.1572 0.433539 -12.1211 0.0460302 -11.9091 -0.568424 1.40984 -1.17588 17.0489 -0.240746 -0.0 0.0 -0.0 7.56711 14.2719 -14.3991 -25.4774 29.4985 -62.0693 0.67737 18.5492 -0.110617 55.9626 1.42796 6.72325 -0.525371 -10.1048 -0.819101 0.0 0.0 0.0 18.3582 -6.62562 -0.246734 -37.4193 -0.310804 5.6336 3.04667 21.2237 -0.45395 29.4004 -0.0 -0.0 -0.0 0.0 -0.0 34.5044 17.0233 -5.98432 -10.3997 -0.286535 -1.56812 -11.3631 -3.40184 -1.7043 14.5966 -0.0 -0.0 0.0 0.0 0.0 
2711.51 749.037 -546.587 -159.165 -55.5293 -160.745 4.57675 0.48783 0.178256 4.57664 0.475499 0.208937 4.57846 0.443909 0.269628 4.57868 0.480921 0.196136 -6.17774 -6.43025 -7.23712 -6.04004 -6.57282 -8.49736 -0.0 0.0 -0.0 4.07144 13.3223 8.28646 -20.8884 -22.8888 65.0278 0.457075 -12.7581 0.0511001 -11.8817 -0.566782 1.40674 -1.07488 17.0502 0.374881 -0.0 0.0 -0.0 7.57347 15.0067 -14.3719 -23.4767 30.7759 -60.753 0.750353 20.3902 -0.134946 55.8801 1.42118 6.71515 -0.376962 -9.21351 -1.39559 0.0 0.0 0.0 20.5206 -9.05352 -0.0655949 -44.4313 -0.772477 6.60718 -1.70499 19.7914 0.25545 29.5051 -0.0 -0.0 -0.0 0.0 -0.0 32.4244 15.844 -6.74654 -10.7837 -0.291631 -1.6268 -9.9882 -1.74679 -1.50006 15.3615 -0.0 -0.0 0.0 0.0 0.0 
2733.99 753.25 -535.308 -161.454 -55.973 -162.232 4.42732 0.354301 0.115665 4.42726 0.346223 0.137976 4.42813 0.324602 0.183144 4.42825 0.349452 0.12958 -6.94146 -6.93224 -9.35981 -6.70904 -6.08652 -10.734 -0.0 0.0 -0.0 3.50157 14.9952 7.38688 -22.4973 -22.4449 65.6448 0.385603 -10.8144 0.0364992 -11.9908 -0.573323 1.41907 -0.38991 19.3794 5.49092 -0.0 0.0 -0.0 7.69053 14.5928 -14.6487 -21.7206 31.4056 -60.1349 0.776826 21.0475 -0.144312 54.9308 1.34398 6.62115 -0.239709 -5.09256 -0.556147 0.0 0.0 0.0 26.2199 -8.27676 -1.03682 -55.8081 -1.76475 8.04768 -6.92286 14.5311 1.03281 29.2938 -0.0 -0.0 -0.0 0.0 -0.0 29.2245 14.119 -7.28531 -11.4634 -0.299689 -1.7308 -5.5979 -0.768678 -0.836628 17.0319 -0.0 -0.0 0.0 0.0 0.0 
